<svg id="Layer_1" data-name="Layer 1" xmlns="http://www.w3.org/2000/svg" viewBox="0 0 140 20"><defs><style>.cls-1{fill:#00005b;}.cls-2{fill:#99f;}.cls-3{font-size:12px;font-family:Poppins-SemiBold, Poppins;font-weight:600;}</style></defs><g id="Layer_2" data-name="Layer 2"><g id="Surfaces"><g id="Video_Audio_Surface" data-name="Video Audio Surface"><g id="Outline_no_shadow" data-name="Outline no shadow"><path class="cls-1" d="M26.05,0H39.3a3.62,3.62,0,0,1,3.63,3.63V16.37A3.62,3.62,0,0,1,39.3,20H26.05a3.62,3.62,0,0,1-3.63-3.63V3.63A3.62,3.62,0,0,1,26.05,0Z"/></g></g></g><g id="Outlined_Mnemonics_Logos" data-name="Outlined Mnemonics Logos"><g id="Ae"><path class="cls-2" d="M30.66,12H27.48l-.65,2a.15.15,0,0,1-.17.12h-1.6c-.1,0-.12,0-.1-.15l2.76-7.89c0-.09.05-.16.08-.27a2.45,2.45,0,0,0,.05-.55.08.08,0,0,1,.07-.09h2.21c.06,0,.11,0,.12.06L33.36,14c0,.1,0,.14-.08.14H31.49a.11.11,0,0,1-.13-.09ZM28,10.26h2.17L30,9.65c-.08-.23-.16-.48-.23-.74s-.17-.52-.25-.78-.16-.51-.23-.76l-.19-.67h0a10.47,10.47,0,0,1-.29,1.1c-.13.41-.26.84-.39,1.27A12,12,0,0,1,28,10.26Z"/><path class="cls-2" d="M38.43,11.18H35.72a1.93,1.93,0,0,0,.27.76,1.34,1.34,0,0,0,.62.51,2.58,2.58,0,0,0,1.1.22,5.27,5.27,0,0,0,.89-.1,3.26,3.26,0,0,0,.76-.19s.06,0,.06.06v1.31a.31.31,0,0,1,0,.1.17.17,0,0,1-.06.06,3.71,3.71,0,0,1-.86.26,5.45,5.45,0,0,1-1.21.1,4,4,0,0,1-1.64-.3,2.88,2.88,0,0,1-1.08-.81A3.17,3.17,0,0,1,34,12a4.34,4.34,0,0,1-.18-1.25A4.15,4.15,0,0,1,34,9.44a3.48,3.48,0,0,1,.64-1.18,3.14,3.14,0,0,1,1-.81,3.32,3.32,0,0,1,1.43-.26,3,3,0,0,1,1.32.26,2.44,2.44,0,0,1,.9.69,3.11,3.11,0,0,1,.51,1,3.38,3.38,0,0,1,.17,1c0,.21,0,.39,0,.55s0,.28,0,.36a.12.12,0,0,1-.11.11l-.29,0a3.55,3.55,0,0,1-.49,0C38.86,11.21,38.66,11.18,38.43,11.18ZM35.72,9.93H38a.37.37,0,0,0,.2-.07V9.77a1.19,1.19,0,0,0-.05-.32,1.12,1.12,0,0,0-1.11-.78,1.19,1.19,0,0,0-1.14.65A1.88,1.88,0,0,0,35.72,9.93Z"/></g></g></g><text class="cls-3" transform="translate(52.12 14.14)">After Effects</text></svg>