<svg id="Layer_1" data-name="Layer 1" xmlns="http://www.w3.org/2000/svg" viewBox="0 0 140 20"><defs><style>.cls-1{fill:#300;}.cls-2{fill:#ff9a00;}.cls-3{font-size:12px;font-family:Poppins-SemiBold, Poppins;font-weight:600;}</style></defs><g id="Layer_2" data-name="Layer 2"><g id="Surfaces"><g id="Drawing_Surface" data-name="Drawing Surface"><g id="Outline_no_shadow" data-name="Outline no shadow"><path class="cls-1" d="M26.21.25H39.13a3.53,3.53,0,0,1,3.54,3.54V16.21a3.53,3.53,0,0,1-3.54,3.54H26.21a3.54,3.54,0,0,1-3.54-3.54V3.79A3.54,3.54,0,0,1,26.21.25Z"/></g></g></g><g id="Outlined_Mnemonics_Logos" data-name="Outlined Mnemonics Logos"><g id="Ai"><path class="cls-2" d="M32.36,12h-3.1l-.63,2a.14.14,0,0,1-.16.11H26.91c-.1,0-.12,0-.1-.15L29.5,6.15l.08-.28a3.1,3.1,0,0,0,.05-.54s0-.08.07-.09h2.16c.06,0,.1,0,.1.07l3,8.58c0,.09,0,.13-.09.13H33.18a.11.11,0,0,1-.13-.09Zm-2.61-1.69h2.11c-.05-.18-.11-.38-.19-.6s-.15-.47-.22-.72-.16-.51-.24-.76-.16-.5-.23-.75-.12-.45-.18-.65h0a10.72,10.72,0,0,1-.28,1.08c-.13.4-.25.82-.39,1.23s-.24.82-.36,1.17Z"/><path class="cls-2" d="M36.82,6.67a1.08,1.08,0,0,1-.74-.29,1.1,1.1,0,0,1-.28-.77,1,1,0,0,1,.3-.74,1.06,1.06,0,0,1,.74-.29,1,1,0,0,1,.76.29,1,1,0,0,1,.27.74,1.06,1.06,0,0,1-.29.77A1,1,0,0,1,36.82,6.67Zm-.93,7.23V7.48c0-.08,0-.11.11-.11h1.65a.1.1,0,0,1,.11.11V13.9c0,.09,0,.13-.11.13H36C35.93,14,35.89,14,35.89,13.9Z"/></g></g></g><text class="cls-3" transform="translate(52.12 14.14)">Illustrator</text></svg>