<svg id="Layer_1" data-name="Layer 1" xmlns="http://www.w3.org/2000/svg" xmlns:xlink="http://www.w3.org/1999/xlink" viewBox="0 0 140 20"><defs><style>.cls-1{fill:#2062af;}.cls-2{fill:#3c9cd7;}.cls-3{fill:#fff;}.cls-4{fill:url(#linear-gradient);}.cls-5{fill:url(#linear-gradient-2);}.cls-6{fill:url(#linear-gradient-3);}.cls-7{opacity:0.05;isolation:isolate;}.cls-8{fill:url(#linear-gradient-4);}</style><linearGradient id="linear-gradient" x1="-1038.71" y1="-1635.76" x2="-1038.71" y2="-1636.69" gradientTransform="translate(4851.36 7603.16) scale(4.64)" gradientUnits="userSpaceOnUse"><stop offset="0.39" stop-color="#d1d3d4" stop-opacity="0"/><stop offset="1" stop-color="#d1d3d4"/></linearGradient><linearGradient id="linear-gradient-2" x1="-1037.56" y1="-1636.22" x2="-1037.56" y2="-1637.18" xlink:href="#linear-gradient"/><linearGradient id="linear-gradient-3" x1="-1039.26" y1="-1635.35" x2="-1037.05" y2="-1635.35" gradientTransform="translate(4851.36 7603.16) scale(4.64)" gradientUnits="userSpaceOnUse"><stop offset="0" stop-color="#e8e7e5"/><stop offset="1" stop-color="#fff"/></linearGradient><linearGradient id="linear-gradient-4" x1="-1039.37" y1="-1636.95" x2="-1036.96" y2="-1636.95" xlink:href="#linear-gradient-3"/></defs><path d="M69.43,11.77V8.54h4.72V5H65.89V15h8.26V11.77ZM82.64,8.54h3.29V5H77.68V8.54c1.1,1.1,1.68,1.63,3.28,3.23H77.68V15h8.25V11.77L82.64,8.54Zm11.7,0h3.3V5H89.38V8.54c1.1,1.1,1.68,1.63,3.28,3.23H89.38V15h8.26V11.77l-3.3-3.23Z"/><path class="cls-1" d="M39.69,18.06,32.46,20l-7.22-1.94L23.58,0H41.35Z"/><path class="cls-2" d="M32.46,1.46v17h0l5.85-1.57L39.67,1.46Z"/><path class="cls-3" d="M32.46,6,27.29,8.13l.17,2.13,5-2.14,5.31-2.27L38,3.67,32.46,6Z"/><path class="cls-4" d="M27.29,8.13l.17,2.13,5-2.14V6Z"/><path class="cls-5" d="M38,3.67,32.46,6V8.12l5.31-2.27Z"/><path class="cls-6" d="M27.3,8.13l.17,2.13,7.67,0L35,13.13l-2.52.71L30,13.23l-.15-1.77H27.62l.29,3.41,4.56,1.34L37,14.89l.59-6.76Z"/><path class="cls-7" d="M32.46,8.13H27.29l.17,2.13,5,0V8.13Zm0,5.7h0L30,13.23l-.15-1.77H27.61l.29,3.41,4.56,1.34Z"/><path class="cls-8" d="M26.82,3.67H38l-.22,2.18H27.09l-.27-2.18Z"/><path class="cls-7" d="M32.46,3.67H26.82l.27,2.18h5.37V3.67Z"/></svg>