<svg id="Layer_1" data-name="Layer 1" xmlns="http://www.w3.org/2000/svg" viewBox="0 0 140 20"><defs><style>.cls-1{fill:#e44d26;}.cls-2{fill:#f16529;}.cls-3{fill:#ebebeb;}.cls-4{fill:#fff;}</style></defs><path class="cls-1" d="M25.46,18,23.86,0H41.49L39.88,18l-7.22,2Z"/><path class="cls-2" d="M32.67,18.47l5.84-1.62L39.88,1.47H32.67Z"/><path class="cls-3" d="M32.67,8.15H29.75l-.2-2.26h3.12V3.68H27.14l.05.59.54,6.09h4.94Zm0,5.73h0l-2.46-.66-.15-1.76H27.83l.31,3.47,4.52,1.25h0Z"/><path class="cls-4" d="M32.67,8.15v2.21h2.71l-.25,2.86-2.46.66v2.3l4.52-1.25,0-.38.52-5.81.06-.59H32.67Zm0-4.47V5.89H38l0-.5.1-1.12.06-.59Z"/><path d="M60.34,5h3.34V8.3h3.06V5h3.34V15H66.74V11.65H63.68V15H60.34ZM74.48,8.32h-3V5h9.23V8.32H77.82V15H74.48V8.32ZM82.23,5h3.48l2.15,3.51L90,5h3.48V15H90.15V10L87.86,13.6H87.8L85.5,10v5H82.23V5ZM95.15,5h3.34v6.69h4.7V15h-8Z"/></svg>