<svg id="Layer_1" data-name="Layer 1" xmlns="http://www.w3.org/2000/svg" viewBox="0 0 140 20"><defs><style>.cls-1{fill:#001e36;}.cls-2{fill:#31a8ff;}.cls-3{font-size:12px;fill:#fff;font-family:Poppins-SemiBold, Poppins;font-weight:600;}</style></defs><g id="Layer_2" data-name="Layer 2"><g id="Surfaces"><g id="Photo_Surface" data-name="Photo Surface"><g id="Outline_no_shadow" data-name="Outline no shadow"><path class="cls-1" d="M26.05,0H39.3a3.62,3.62,0,0,1,3.63,3.63V16.37A3.62,3.62,0,0,1,39.3,20H26.05a3.62,3.62,0,0,1-3.63-3.63V3.63A3.62,3.62,0,0,1,26.05,0Z"/></g></g></g><g id="Outlined_Mnemonics_Logos" data-name="Outlined Mnemonics Logos"><g id="Ps"><path class="cls-2" d="M27,14V5.23a.08.08,0,0,1,.09-.09h.48l.65,0,.74,0h.78a5,5,0,0,1,1.76.26,3.2,3.2,0,0,1,1.14.7,2.67,2.67,0,0,1,.63,1,3.4,3.4,0,0,1,.19,1.11A3.08,3.08,0,0,1,33,10a2.93,2.93,0,0,1-1.38,1,5.61,5.61,0,0,1-1.92.29h-.79V14a.12.12,0,0,1-.1.12H27.13A.1.1,0,0,1,27,14Zm1.86-7.24V9.66l.34,0h.45a3.24,3.24,0,0,0,1-.16,1.44,1.44,0,0,0,.7-.45,1.34,1.34,0,0,0,.27-.88,1.36,1.36,0,0,0-.2-.76,1.23,1.23,0,0,0-.59-.49,2.47,2.47,0,0,0-1-.17h-.58a1.74,1.74,0,0,0-.36,0Z"/><path class="cls-2" d="M38.83,9.14A3,3,0,0,0,38,8.85a4.49,4.49,0,0,0-1-.11,1.73,1.73,0,0,0-.51,0,.44.44,0,0,0-.27.18.45.45,0,0,0-.07.23.41.41,0,0,0,.09.22,1,1,0,0,0,.29.23c.2.1.4.2.61.28a6.32,6.32,0,0,1,1.31.63,2.07,2.07,0,0,1,.68.7,2.13,2.13,0,0,1-.14,2,2.11,2.11,0,0,1-1,.76,3.89,3.89,0,0,1-1.54.28,6.53,6.53,0,0,1-1.17-.11,3.84,3.84,0,0,1-.87-.28.15.15,0,0,1-.09-.16V12.28s0-.06,0-.07.05,0,.08,0a3.36,3.36,0,0,0,1.06.42,3.78,3.78,0,0,0,1,.13,1.62,1.62,0,0,0,.71-.12.4.4,0,0,0,.23-.36.45.45,0,0,0-.21-.34,3.45,3.45,0,0,0-.84-.4,5.53,5.53,0,0,1-1.21-.62,2.15,2.15,0,0,1-.65-.72,2,2,0,0,1-.2-.88,2,2,0,0,1,.3-1,2.19,2.19,0,0,1,.89-.79,3.41,3.41,0,0,1,1.52-.29,7.55,7.55,0,0,1,1.06.07,3,3,0,0,1,.73.2.17.17,0,0,1,.09.08s0,.06,0,.1V9.05a.1.1,0,0,1,0,.09Z"/></g></g></g><text class="cls-3" transform="translate(52.12 14.14)">Photoshop</text></svg>